<?xml version="1.0" standalone="no"?>
<!DOCTYPE svg PUBLIC "-//W3C//DTD SVG 20010904//EN"
 "http://www.w3.org/TR/2001/REC-SVG-20010904/DTD/svg10.dtd">
<svg version="1.0" xmlns="http://www.w3.org/2000/svg"
 width="5315.000000pt" height="5315.000000pt" viewBox="0 0 5315.000000 5315.000000"
 preserveAspectRatio="xMidYMid meet">
<metadata>
Created by potrace 1.16, written by Peter Selinger 2001-2019
</metadata>
<g transform="translate(0.000000,5315.000000) scale(0.100000,-0.100000)"
fill="white" stroke="none">
<path d="M26240 47830 c-1224 -63 -2106 -385 -2340 -855 -59 -117 -73 -199
-66 -375 46 -1154 784 -2136 1884 -2503 l157 -53 12 -90 c16 -119 41 -369 48
-474 3 -47 8 -107 11 -135 11 -107 10 -709 -2 -903 -66 -1066 -313 -2020 -773
-2985 -33 -70 -66 -129 -73 -132 -7 -2 -85 -14 -173 -25 -1856 -240 -3617
-875 -5205 -1878 -358 -226 -706 -472 -1106 -784 -8 -5 -71 12 -170 48 -1347
477 -2505 1276 -3421 2359 -109 129 -280 343 -297 372 -4 7 15 53 43 105 145
272 254 617 297 938 18 139 24 439 11 595 -42 514 -263 1060 -594 1470 -249
307 -385 392 -649 403 -258 10 -530 -67 -890 -252 -441 -228 -888 -564 -1348
-1016 -1041 -1022 -1568 -2079 -1310 -2627 36 -74 96 -148 204 -248 422 -390
950 -632 1545 -706 169 -21 505 -16 680 10 327 48 575 126 862 268 l152 76
113 -88 c290 -226 490 -404 778 -694 829 -833 1448 -1817 1845 -2936 47 -132
55 -163 45 -179 -6 -10 -66 -89 -132 -175 -1263 -1636 -2129 -3640 -2463
-5696 -34 -206 -85 -570 -85 -601 0 -30 -493 -252 -862 -388 -700 -256 -1440
-414 -2173 -461 -49 -4 -115 -8 -145 -11 -73 -6 -703 -5 -783 1 -34 2 -105 7
-157 10 -190 12 -595 56 -605 67 -2 2 -22 61 -45 132 -83 256 -181 459 -325
676 -114 170 -197 272 -345 421 -493 496 -1130 776 -1830 805 -127 6 -170 4
-231 -10 -301 -67 -544 -347 -727 -836 -304 -814 -376 -2108 -176 -3145 130
-673 358 -1150 652 -1367 74 -55 188 -104 276 -119 75 -12 279 -7 430 12 1055
132 1938 858 2268 1865 l53 162 60 6 c33 3 71 8 85 11 32 5 314 33 405 40 39
2 101 7 140 10 128 10 658 13 820 5 428 -22 771 -64 1165 -141 655 -129 1240
-323 1875 -620 l171 -80 28 -212 c291 -2235 1187 -4388 2564 -6162 75 -96 100
-135 96 -150 -4 -11 -38 -108 -77 -215 -467 -1296 -1271 -2450 -2332 -3347
-127 -107 -343 -280 -371 -296 -7 -4 -68 22 -136 57 -777 396 -1687 404 -2463
22 -262 -129 -492 -290 -691 -482 -99 -96 -152 -175 -189 -285 -25 -74 -29
-100 -31 -224 -1 -88 3 -170 12 -220 105 -589 608 -1366 1360 -2105 461 -453
912 -792 1349 -1016 357 -183 648 -264 894 -251 120 7 199 25 287 68 79 39
139 90 247 208 388 425 624 944 698 1536 21 166 16 514 -10 685 -50 329 -129
579 -278 877 l-66 131 77 100 c341 445 818 935 1271 1307 700 574 1544 1044
2413 1345 l122 43 63 -49 c570 -445 1146 -824 1760 -1160 1388 -759 2878
-1247 4460 -1459 103 -14 194 -25 202 -25 17 0 61 -84 168 -321 389 -860 619
-1779 685 -2734 12 -181 8 -964 -6 -1125 -16 -176 -51 -497 -58 -526 -5 -17
-28 -29 -122 -59 -330 -105 -634 -267 -902 -481 -109 -87 -327 -305 -414 -414
-332 -417 -535 -910 -591 -1438 -42 -389 6 -566 207 -764 319 -315 1019 -551
1843 -623 39 -3 88 -8 110 -10 200 -22 852 -28 989 -10 17 2 76 6 131 10 289
17 659 74 950 146 686 170 1116 453 1219 799 51 171 15 585 -80 920 -250 883
-939 1591 -1815 1865 l-126 39 -21 186 c-58 499 -73 975 -46 1430 53 907 270
1824 624 2645 111 256 206 454 222 460 7 2 85 14 173 25 170 22 201 26 445 66
2049 331 4009 1179 5694 2463 110 84 186 135 198 134 40 -6 420 -149 618 -233
1218 -520 2266 -1317 3095 -2355 61 -77 122 -154 134 -171 l23 -31 -56 -104
c-141 -267 -244 -590 -292 -924 -22 -149 -25 -511 -6 -665 74 -591 316 -1115
720 -1558 164 -179 312 -247 551 -251 405 -8 982 257 1596 733 386 299 819
721 1137 1108 541 659 857 1306 847 1741 -5 228 -63 362 -223 518 -375 363
-856 615 -1362 713 -204 39 -314 49 -534 49 -226 1 -333 -10 -550 -53 -246
-49 -450 -120 -687 -237 l-152 -75 -63 48 c-275 210 -527 431 -804 708 -339
340 -551 587 -821 959 -376 518 -708 1125 -948 1737 -40 102 -92 240 -115 308
l-43 123 30 37 c75 93 290 382 389 522 1127 1588 1876 3409 2189 5321 33 203
85 572 85 604 0 41 640 318 1065 460 679 228 1281 343 2095 400 131 9 698 6
875 -5 217 -13 604 -50 671 -65 17 -4 28 -27 58 -122 106 -331 269 -636 482
-903 88 -110 305 -327 414 -413 468 -373 1022 -580 1610 -604 126 -5 170 -3
231 11 140 31 250 95 367 215 324 330 540 999 626 1936 20 222 28 598 17 849
-6 149 -13 282 -15 296 -2 14 -7 61 -10 105 -33 411 -139 912 -263 1240 -178
470 -432 761 -718 820 -165 34 -491 5 -795 -70 -914 -227 -1658 -927 -1941
-1827 l-43 -136 -55 -5 c-31 -4 -117 -13 -191 -22 -74 -8 -159 -18 -187 -20
-29 -3 -77 -7 -105 -10 -256 -23 -756 -28 -1068 -9 -1028 61 -1999 309 -2936
751 l-180 85 -27 208 c-160 1214 -501 2434 -985 3515 -99 222 -129 285 -244
517 -391 785 -841 1499 -1391 2204 l-47 60 41 120 c486 1411 1374 2666 2554
3609 77 61 154 122 171 134 l32 23 93 -50 c308 -165 699 -281 1044 -309 146
-12 434 -9 555 6 598 72 1165 339 1586 747 154 149 212 278 221 489 10 232
-52 480 -198 785 -230 481 -583 961 -1078 1464 -858 871 -1767 1399 -2350
1363 -112 -7 -192 -27 -277 -68 -77 -38 -131 -83 -234 -194 -396 -427 -633
-945 -711 -1550 -21 -162 -16 -511 10 -685 48 -319 126 -571 268 -857 l75
-152 -103 -133 c-707 -909 -1610 -1656 -2634 -2179 -348 -178 -682 -321 -1023
-439 l-123 -43 -37 30 c-335 268 -849 625 -1267 880 -1283 783 -2718 1341
-4180 1627 -298 58 -926 156 -1000 156 -36 0 -287 568 -426 963 -179 506 -322
1120 -384 1642 -3 28 -8 66 -10 85 -7 49 -23 237 -30 345 -4 50 -8 115 -11
145 -8 107 -5 697 6 860 14 224 52 611 66 666 5 17 28 29 122 59 331 105 632
266 902 481 109 87 327 305 414 414 375 471 585 1039 602 1630 5 177 -6 242
-60 355 -105 223 -357 415 -746 568 -305 120 -773 226 -1160 262 -36 4 -78 8
-95 10 -16 2 -75 7 -130 10 -55 3 -109 8 -121 10 -41 9 -622 12 -764 5z
m-2918 -13306 c508 -62 955 -337 1241 -762 417 -620 388 -1445 -70 -2037 -303
-391 -766 -638 -1258 -673 -837 -59 -1605 493 -1810 1303 -46 180 -59 306 -52
505 9 271 60 468 183 715 82 165 171 290 304 428 382 397 917 588 1462 521z
m8097 -3123 c810 -153 1417 -826 1479 -1642 48 -622 -220 -1218 -715 -1590
-234 -177 -487 -287 -783 -341 -152 -28 -447 -30 -595 -5 -592 102 -1089 472
-1345 1002 -122 253 -168 448 -177 740 -9 308 40 551 166 820 263 558 773 934
1396 1029 135 21 429 14 574 -13z m-10499 -5091 c436 -55 849 -224 1209 -493
126 -94 377 -346 472 -472 275 -368 432 -754 494 -1215 19 -141 13 -527 -9
-664 -107 -645 -418 -1187 -908 -1580 -358 -287 -796 -473 -1248 -530 -116
-15 -478 -23 -540 -12 -14 3 -52 7 -85 11 -99 10 -295 52 -421 91 -838 254
-1496 955 -1697 1809 -47 198 -61 323 -61 555 -1 214 4 301 24 415 50 288 119
497 246 747 334 656 965 1142 1687 1298 114 24 203 37 382 54 68 7 365 -3 455
-14z m11516 -3331 c524 -73 940 -499 1004 -1029 63 -522 -248 -1043 -734
-1231 -169 -65 -212 -73 -431 -73 -179 -1 -209 2 -285 22 -527 144 -877 579
-894 1112 -23 726 619 1300 1340 1199z"/>
</g>
</svg>
